<svg width="27" height="30" viewBox="0 0 27 30" fill="none" xmlns="http://www.w3.org/2000/svg">
<path fill-rule="evenodd" clip-rule="evenodd" d="M17.5981 2.67509C17.6847 2.86696 17.8702 3 18.0807 3H24C25.65 3 27 4.35 27 6V27C27 28.65 25.65 30 24 30H3C2.79 30 2.595 29.985 2.4 29.955C1.815 29.835 1.29 29.535 0.885 29.13C0.615 28.845 0.39 28.53 0.24 28.17C0.09 27.81 0 27.405 0 27V6C0 5.58 0.09 5.19 0.24 4.845C0.39 4.485 0.615 4.155 0.885 3.885C1.29 3.48 1.815 3.18 2.4 3.06C2.595 3.015 2.79 3 3 3H8.91927C9.12978 3 9.31532 2.86696 9.40192 2.67509C10.1104 1.10532 11.6736 0 13.5 0C15.3264 0 16.8896 1.10532 17.5981 2.67509ZM12.0009 9.50015C12.0009 9.224 12.2248 9.00015 12.5009 9.00015H14.5009C14.7771 9.00015 15.0009 9.224 15.0009 9.50015V17.5001C15.0009 17.7763 14.7771 18.0001 14.5009 18.0001H12.5009C12.2248 18.0001 12.0009 17.7763 12.0009 17.5001V9.50015ZM12.0009 21.5C12.0009 21.2238 12.2248 21 12.5009 21H14.5009C14.7771 21 15.0009 21.2238 15.0009 21.5V23.5C15.0009 23.7761 14.7771 24 14.5009 24H12.5009C12.2248 24 12.0009 23.7761 12.0009 23.5V21.5ZM13.4999 2.62486C14.1149 2.62486 14.6249 3.13486 14.6249 3.74986C14.6249 4.36486 14.1149 4.87486 13.4999 4.87486C12.8849 4.87486 12.3749 4.36486 12.3749 3.74986C12.3749 3.13486 12.8849 2.62486 13.4999 2.62486ZM2.99968 26.4999C2.99968 26.7761 3.22354 26.9999 3.49968 26.9999H23.4997C23.7758 26.9999 23.9997 26.7761 23.9997 26.4999V6.49991C23.9997 6.22377 23.7758 5.99991 23.4997 5.99991H3.49968C3.22354 5.99991 2.99968 6.22377 2.99968 6.49991V26.4999Z" fill="#7B6958"/>
</svg>
