<svg width="150" height="34" viewBox="0 0 150 34" fill="none" xmlns="http://www.w3.org/2000/svg">
<path d="M26.9171 28.3333H7.08375C6.70803 28.3333 6.3477 28.4826 6.08202 28.7483C5.81634 29.0139 5.66709 29.3743 5.66709 29.75C5.66709 30.1257 5.81634 30.4861 6.08202 30.7517C6.3477 31.0174 6.70803 31.1667 7.08375 31.1667H26.9171C27.2928 31.1667 27.6531 31.0174 27.9188 30.7517C28.1845 30.4861 28.3338 30.1257 28.3338 29.75C28.3338 29.3743 28.1845 29.0139 27.9188 28.7483C27.6531 28.4826 27.2928 28.3333 26.9171 28.3333ZM7.08375 25.5H7.21125L13.1188 24.9617C13.7659 24.8972 14.3711 24.6121 14.8329 24.1542L27.5829 11.4042C28.0778 10.8814 28.3452 10.1837 28.3266 9.46409C28.3081 8.74447 28.005 8.06155 27.4838 7.565L23.6021 3.68334C23.0955 3.20747 22.4316 2.93443 21.7368 2.91614C21.042 2.89786 20.3647 3.13561 19.8338 3.58417L7.08375 16.3342C6.62584 16.796 6.34072 17.4012 6.27625 18.0483L5.66709 23.9558C5.648 24.1633 5.67493 24.3725 5.74594 24.5684C5.81695 24.7643 5.93031 24.9421 6.07792 25.0892C6.21029 25.2205 6.36728 25.3243 6.53989 25.3948C6.71249 25.4653 6.89731 25.5011 7.08375 25.5ZM21.6329 5.66667L25.5004 9.53417L22.6671 12.2967L18.8704 8.5L21.6329 5.66667ZM9.02459 18.2892L17.0004 10.37L20.8254 14.195L12.8921 22.1283L8.64209 22.525L9.02459 18.2892Z" fill="#555555"/>
<path d="M41.96 23V9.8H51.52V11.64H44.1V15.44H49.9V17.24H44.1V21.16H51.8V23H41.96ZM57.9219 23.2C57.0952 23.2 56.3419 22.9933 55.6619 22.58C54.9952 22.1667 54.4685 21.5733 54.0819 20.8C53.6952 20.0267 53.5019 19.1 53.5019 18.02C53.5019 16.9 53.7085 15.9533 54.1219 15.18C54.5352 14.4067 55.0885 13.82 55.7819 13.42C56.4752 13.0067 57.2352 12.8 58.0619 12.8C58.9152 12.8 59.6352 13.0333 60.2219 13.5C60.8085 13.9667 61.2019 14.5733 61.4019 15.32L61.1619 15.54V8.5H63.3019V23H61.4019L61.2419 20.28L61.5219 20.3C61.4285 20.9 61.2085 21.42 60.8619 21.86C60.5152 22.2867 60.0819 22.62 59.5619 22.86C59.0552 23.0867 58.5085 23.2 57.9219 23.2ZM58.3819 21.48C58.9552 21.48 59.4485 21.3333 59.8619 21.04C60.2752 20.7467 60.5952 20.3333 60.8219 19.8C61.0485 19.2667 61.1619 18.6267 61.1619 17.88C61.1619 17.1867 61.0485 16.5933 60.8219 16.1C60.5952 15.5933 60.2752 15.2067 59.8619 14.94C59.4619 14.6733 58.9952 14.54 58.4619 14.54C57.5685 14.54 56.8752 14.8467 56.3819 15.46C55.8885 16.0733 55.6419 16.92 55.6419 18C55.6419 19.08 55.8819 19.9333 56.3619 20.56C56.8419 21.1733 57.5152 21.48 58.3819 21.48ZM67.7009 11.32C67.2343 11.32 66.8743 11.2067 66.6209 10.98C66.3809 10.74 66.2609 10.4067 66.2609 9.98C66.2609 9.55333 66.3809 9.22667 66.6209 9C66.8743 8.77333 67.2343 8.66 67.7009 8.66C68.1543 8.66 68.5009 8.77333 68.7409 9C68.9943 9.22667 69.1209 9.55333 69.1209 9.98C69.1209 10.4067 68.9943 10.74 68.7409 10.98C68.5009 11.2067 68.1543 11.32 67.7009 11.32ZM68.7609 13V23H66.6209V13H68.7609ZM75.0292 10.06V20C75.0292 20.4933 75.1559 20.8533 75.4092 21.08C75.6759 21.3067 76.0292 21.42 76.4692 21.42C76.8292 21.42 77.1426 21.3667 77.4092 21.26C77.6759 21.14 77.9226 20.98 78.1492 20.78L78.6292 22.34C78.3226 22.6067 77.9426 22.82 77.4892 22.98C77.0492 23.1267 76.5559 23.2 76.0092 23.2C75.4359 23.2 74.9092 23.1067 74.4292 22.92C73.9492 22.7333 73.5759 22.4333 73.3092 22.02C73.0426 21.5933 72.9026 21.04 72.8892 20.36V10.66L75.0292 10.06ZM78.4692 13V14.68H70.9692V13H78.4692ZM92.4697 9.8C93.4164 9.8 94.2297 9.96667 94.9097 10.3C95.603 10.6333 96.143 11.1067 96.5297 11.72C96.9164 12.3333 97.1097 13.0733 97.1097 13.94C97.1097 14.7933 96.9164 15.5333 96.5297 16.16C96.143 16.7733 95.603 17.2467 94.9097 17.58C94.2297 17.9133 93.4164 18.08 92.4697 18.08H89.5297V23H87.3897V9.8H92.4697ZM92.1297 16.24C93.0764 16.24 93.7697 16.0467 94.2097 15.66C94.663 15.26 94.8897 14.6867 94.8897 13.94C94.8897 13.18 94.663 12.6067 94.2097 12.22C93.7697 11.82 93.0764 11.62 92.1297 11.62H89.5297V16.24H92.1297ZM99.6288 23V13H101.449L101.649 14.8C101.915 14.1467 102.309 13.6533 102.829 13.32C103.362 12.9733 104.015 12.8 104.789 12.8C104.989 12.8 105.189 12.82 105.389 12.86C105.589 12.8867 105.755 12.9333 105.889 13L105.589 14.88C105.442 14.8267 105.275 14.7867 105.089 14.76C104.915 14.72 104.675 14.7 104.369 14.7C103.955 14.7 103.549 14.8133 103.149 15.04C102.749 15.2533 102.415 15.58 102.149 16.02C101.895 16.46 101.769 17.02 101.769 17.7V23H99.6288ZM111.996 12.8C112.969 12.8 113.829 13.0067 114.576 13.42C115.323 13.8333 115.903 14.4333 116.316 15.22C116.743 15.9933 116.956 16.92 116.956 18C116.956 19.08 116.743 20.0133 116.316 20.8C115.903 21.5733 115.323 22.1667 114.576 22.58C113.829 22.9933 112.969 23.2 111.996 23.2C111.023 23.2 110.163 22.9933 109.416 22.58C108.669 22.1667 108.083 21.5733 107.656 20.8C107.229 20.0133 107.016 19.08 107.016 18C107.016 16.92 107.229 15.9933 107.656 15.22C108.083 14.4333 108.669 13.8333 109.416 13.42C110.163 13.0067 111.023 12.8 111.996 12.8ZM111.996 14.48C111.396 14.48 110.883 14.62 110.456 14.9C110.043 15.1667 109.723 15.56 109.496 16.08C109.269 16.6 109.156 17.24 109.156 18C109.156 18.7467 109.269 19.3867 109.496 19.92C109.723 20.44 110.043 20.84 110.456 21.12C110.883 21.3867 111.396 21.52 111.996 21.52C112.596 21.52 113.103 21.3867 113.516 21.12C113.929 20.84 114.249 20.44 114.476 19.92C114.703 19.3867 114.816 18.7467 114.816 18C114.816 17.24 114.703 16.6 114.476 16.08C114.249 15.56 113.929 15.1667 113.516 14.9C113.103 14.62 112.596 14.48 111.996 14.48ZM123.752 8.36C124.165 8.36 124.538 8.40667 124.872 8.5C125.218 8.58 125.478 8.69333 125.652 8.84L125.252 10.38C125.105 10.2867 124.938 10.22 124.752 10.18C124.565 10.1267 124.352 10.1 124.112 10.1C123.565 10.1 123.132 10.2267 122.812 10.48C122.505 10.7333 122.352 11.1467 122.352 11.72V13.18L122.412 13.72V23H120.272V11.56C120.272 11.0533 120.345 10.6 120.492 10.2C120.652 9.8 120.885 9.46667 121.192 9.2C121.498 8.92 121.865 8.71333 122.292 8.58C122.732 8.43333 123.218 8.36 123.752 8.36ZM125.592 13V14.68H118.392V13H125.592ZM128.592 11.32C128.125 11.32 127.765 11.2067 127.512 10.98C127.272 10.74 127.152 10.4067 127.152 9.98C127.152 9.55333 127.272 9.22667 127.512 9C127.765 8.77333 128.125 8.66 128.592 8.66C129.045 8.66 129.392 8.77333 129.632 9C129.885 9.22667 130.012 9.55333 130.012 9.98C130.012 10.4067 129.885 10.74 129.632 10.98C129.392 11.2067 129.045 11.32 128.592 11.32ZM129.652 13V23H127.512V13H129.652ZM135.049 8.5V20.2C135.049 20.6933 135.135 21.0333 135.309 21.22C135.482 21.4067 135.769 21.5 136.169 21.5C136.409 21.5 136.609 21.4867 136.769 21.46C136.942 21.42 137.155 21.3533 137.409 21.26L137.169 22.86C136.942 22.9667 136.682 23.0467 136.389 23.1C136.095 23.1667 135.802 23.2 135.509 23.2C134.615 23.2 133.955 22.9733 133.529 22.52C133.115 22.0533 132.909 21.34 132.909 20.38V8.5H135.049ZM143.599 23.2C142.599 23.2 141.719 22.9933 140.959 22.58C140.199 22.1667 139.606 21.5733 139.179 20.8C138.766 20.0133 138.559 19.08 138.559 18C138.559 16.92 138.766 15.9933 139.179 15.22C139.606 14.4333 140.192 13.8333 140.939 13.42C141.686 13.0067 142.532 12.8 143.479 12.8C144.452 12.8 145.279 13 145.959 13.4C146.639 13.8 147.159 14.3467 147.519 15.04C147.879 15.7333 148.059 16.52 148.059 17.4C148.059 17.64 148.052 17.8667 148.039 18.08C148.026 18.2933 148.006 18.48 147.979 18.64H139.939V17H147.039L145.979 17.32C145.979 16.4133 145.752 15.72 145.299 15.24C144.846 14.7467 144.226 14.5 143.439 14.5C142.866 14.5 142.366 14.6333 141.939 14.9C141.512 15.1667 141.186 15.5667 140.959 16.1C140.732 16.62 140.619 17.26 140.619 18.02C140.619 18.7667 140.739 19.4 140.979 19.92C141.219 20.44 141.559 20.8333 141.999 21.1C142.439 21.3667 142.959 21.5 143.559 21.5C144.226 21.5 144.766 21.3733 145.179 21.12C145.592 20.8667 145.919 20.5133 146.159 20.06L147.859 20.86C147.619 21.34 147.292 21.76 146.879 22.12C146.479 22.4667 145.999 22.7333 145.439 22.92C144.879 23.1067 144.266 23.2 143.599 23.2Z" fill="#443E3E"/>
</svg>
