<svg width="79" height="34" viewBox="0 0 79 34" fill="none" xmlns="http://www.w3.org/2000/svg">
<path d="M26.9171 28.3333H7.08375C6.70803 28.3333 6.3477 28.4826 6.08202 28.7483C5.81634 29.0139 5.66709 29.3743 5.66709 29.75C5.66709 30.1257 5.81634 30.4861 6.08202 30.7517C6.3477 31.0174 6.70803 31.1667 7.08375 31.1667H26.9171C27.2928 31.1667 27.6531 31.0174 27.9188 30.7517C28.1845 30.4861 28.3338 30.1257 28.3338 29.75C28.3338 29.3743 28.1845 29.0139 27.9188 28.7483C27.6531 28.4826 27.2928 28.3333 26.9171 28.3333ZM7.08375 25.5H7.21125L13.1188 24.9617C13.7659 24.8972 14.3711 24.6121 14.8329 24.1542L27.5829 11.4042C28.0778 10.8814 28.3452 10.1837 28.3266 9.46409C28.3081 8.74447 28.005 8.06155 27.4838 7.565L23.6021 3.68334C23.0955 3.20747 22.4316 2.93443 21.7368 2.91614C21.042 2.89786 20.3647 3.13561 19.8338 3.58417L7.08375 16.3342C6.62584 16.796 6.34072 17.4012 6.27625 18.0483L5.66709 23.9558C5.648 24.1633 5.67493 24.3725 5.74594 24.5684C5.81695 24.7643 5.93031 24.9421 6.07792 25.0892C6.21029 25.2205 6.36728 25.3243 6.53989 25.3948C6.71249 25.4653 6.89731 25.5011 7.08375 25.5ZM21.6329 5.66667L25.5004 9.53417L22.6671 12.2967L18.8704 8.5L21.6329 5.66667ZM9.02459 18.2892L17.0004 10.37L20.8254 14.195L12.8921 22.1283L8.64209 22.525L9.02459 18.2892Z" fill="#555555"/>
<path d="M41.96 23V9.8H51.52V11.64H44.1V15.44H49.9V17.24H44.1V21.16H51.8V23H41.96ZM57.9219 23.2C57.0952 23.2 56.3419 22.9933 55.6619 22.58C54.9952 22.1667 54.4685 21.5733 54.0819 20.8C53.6952 20.0267 53.5019 19.1 53.5019 18.02C53.5019 16.9 53.7085 15.9533 54.1219 15.18C54.5352 14.4067 55.0885 13.82 55.7819 13.42C56.4752 13.0067 57.2352 12.8 58.0619 12.8C58.9152 12.8 59.6352 13.0333 60.2219 13.5C60.8085 13.9667 61.2019 14.5733 61.4019 15.32L61.1619 15.54V8.5H63.3019V23H61.4019L61.2419 20.28L61.5219 20.3C61.4285 20.9 61.2085 21.42 60.8619 21.86C60.5152 22.2867 60.0819 22.62 59.5619 22.86C59.0552 23.0867 58.5085 23.2 57.9219 23.2ZM58.3819 21.48C58.9552 21.48 59.4485 21.3333 59.8619 21.04C60.2752 20.7467 60.5952 20.3333 60.8219 19.8C61.0485 19.2667 61.1619 18.6267 61.1619 17.88C61.1619 17.1867 61.0485 16.5933 60.8219 16.1C60.5952 15.5933 60.2752 15.2067 59.8619 14.94C59.4619 14.6733 58.9952 14.54 58.4619 14.54C57.5685 14.54 56.8752 14.8467 56.3819 15.46C55.8885 16.0733 55.6419 16.92 55.6419 18C55.6419 19.08 55.8819 19.9333 56.3619 20.56C56.8419 21.1733 57.5152 21.48 58.3819 21.48ZM67.7009 11.32C67.2343 11.32 66.8743 11.2067 66.6209 10.98C66.3809 10.74 66.2609 10.4067 66.2609 9.98C66.2609 9.55333 66.3809 9.22667 66.6209 9C66.8743 8.77333 67.2343 8.66 67.7009 8.66C68.1543 8.66 68.5009 8.77333 68.7409 9C68.9943 9.22667 69.1209 9.55333 69.1209 9.98C69.1209 10.4067 68.9943 10.74 68.7409 10.98C68.5009 11.2067 68.1543 11.32 67.7009 11.32ZM68.7609 13V23H66.6209V13H68.7609ZM75.0292 10.06V20C75.0292 20.4933 75.1559 20.8533 75.4092 21.08C75.6759 21.3067 76.0292 21.42 76.4692 21.42C76.8292 21.42 77.1426 21.3667 77.4092 21.26C77.6759 21.14 77.9226 20.98 78.1492 20.78L78.6292 22.34C78.3226 22.6067 77.9426 22.82 77.4892 22.98C77.0492 23.1267 76.5559 23.2 76.0092 23.2C75.4359 23.2 74.9092 23.1067 74.4292 22.92C73.9492 22.7333 73.5759 22.4333 73.3092 22.02C73.0426 21.5933 72.9026 21.04 72.8892 20.36V10.66L75.0292 10.06ZM78.4692 13V14.68H70.9692V13H78.4692Z" fill="black"/>
</svg>
