<svg width="149" height="40" viewBox="0 0 149 40" fill="none" xmlns="http://www.w3.org/2000/svg">
<path d="M15 35H8.33333C7.44928 35 6.60143 34.6488 5.97631 34.0237C5.35119 33.3986 5 32.5507 5 31.6667V8.33333C5 7.44928 5.35119 6.60143 5.97631 5.97631C6.60143 5.35119 7.44928 5 8.33333 5H15" stroke="#443E3E" stroke-width="3.33333" stroke-linecap="round" stroke-linejoin="round"/>
<path d="M26.667 28.3334L35.0003 20L26.667 11.6667" stroke="#443E3E" stroke-width="3.33333" stroke-linecap="round" stroke-linejoin="round"/>
<path d="M35 20H15" stroke="#443E3E" stroke-width="3.33333" stroke-linecap="round" stroke-linejoin="round"/>
<path d="M61.125 25.7H70.225V28H58.45V11.5H61.125V25.7ZM78.1729 15.25C79.3895 15.25 80.4645 15.5083 81.3979 16.025C82.3312 16.5417 83.0562 17.2917 83.5729 18.275C84.1062 19.2417 84.3729 20.4 84.3729 21.75C84.3729 23.1 84.1062 24.2667 83.5729 25.25C83.0562 26.2167 82.3312 26.9583 81.3979 27.475C80.4645 27.9917 79.3895 28.25 78.1729 28.25C76.9562 28.25 75.8812 27.9917 74.9479 27.475C74.0145 26.9583 73.2812 26.2167 72.7479 25.25C72.2145 24.2667 71.9479 23.1 71.9479 21.75C71.9479 20.4 72.2145 19.2417 72.7479 18.275C73.2812 17.2917 74.0145 16.5417 74.9479 16.025C75.8812 15.5083 76.9562 15.25 78.1729 15.25ZM78.1729 17.35C77.4229 17.35 76.7812 17.525 76.2479 17.875C75.7312 18.2083 75.3312 18.7 75.0479 19.35C74.7645 20 74.6229 20.8 74.6229 21.75C74.6229 22.6833 74.7645 23.4833 75.0479 24.15C75.3312 24.8 75.7312 25.3 76.2479 25.65C76.7812 25.9833 77.4229 26.15 78.1729 26.15C78.9229 26.15 79.5562 25.9833 80.0729 25.65C80.5895 25.3 80.9895 24.8 81.2729 24.15C81.5562 23.4833 81.6979 22.6833 81.6979 21.75C81.6979 20.8 81.5562 20 81.2729 19.35C80.9895 18.7 80.5895 18.2083 80.0729 17.875C79.5562 17.525 78.9229 17.35 78.1729 17.35ZM98.6893 12.875L99.1143 14.975C99.0643 14.975 99.0143 14.975 98.9643 14.975C98.9143 14.9583 98.8643 14.95 98.8143 14.95C98.0143 14.95 97.4059 15.125 96.9893 15.475C96.5726 15.8083 96.3643 16.3 96.3643 16.95L95.0643 16.35C95.0643 15.6833 95.2059 15.0917 95.4893 14.575C95.7726 14.0417 96.1726 13.625 96.6893 13.325C97.2226 13.025 97.8226 12.875 98.4893 12.875C98.5226 12.875 98.5559 12.875 98.5893 12.875C98.6226 12.875 98.6559 12.875 98.6893 12.875ZM94.7393 26.05C96.0059 26.05 96.9893 26.3333 97.6893 26.9C98.3893 27.45 98.7393 28.2167 98.7393 29.2C98.7393 30.0667 98.4643 30.8083 97.9143 31.425C97.3643 32.0583 96.6143 32.5417 95.6643 32.875C94.7309 33.2083 93.6559 33.375 92.4393 33.375C90.3893 33.375 88.8726 33.0583 87.8893 32.425C86.9059 31.7917 86.4143 31 86.4143 30.05C86.4143 29.3833 86.6476 28.8 87.1143 28.3C87.5976 27.8 88.4059 27.5167 89.5393 27.45L89.3893 27.85C88.6893 27.7 88.1226 27.4333 87.6893 27.05C87.2726 26.65 87.0643 26.0917 87.0643 25.375C87.0643 24.6583 87.3393 24.05 87.8893 23.55C88.4393 23.05 89.2143 22.7583 90.2143 22.675L91.6143 23.35H91.3143C90.5476 23.4167 90.0059 23.5917 89.6893 23.875C89.3726 24.1583 89.2143 24.475 89.2143 24.825C89.2143 25.2417 89.3643 25.55 89.6643 25.75C89.9809 25.95 90.4226 26.05 90.9893 26.05H94.7393ZM92.4393 31.375C93.3559 31.375 94.1059 31.2833 94.6893 31.1C95.2893 30.9333 95.7309 30.7083 96.0143 30.425C96.3143 30.1583 96.4643 29.8583 96.4643 29.525C96.4643 29.1417 96.3059 28.8333 95.9893 28.6C95.6893 28.3667 95.1393 28.25 94.3393 28.25H90.3143C89.8476 28.25 89.4559 28.3667 89.1393 28.6C88.8226 28.85 88.6643 29.1833 88.6643 29.6C88.6643 30.15 88.9976 30.5833 89.6643 30.9C90.3309 31.2167 91.2559 31.375 92.4393 31.375ZM92.3393 15.25C93.4393 15.25 94.3893 15.425 95.1893 15.775C96.0059 16.125 96.6309 16.6167 97.0643 17.25C97.5143 17.8833 97.7393 18.625 97.7393 19.475C97.7393 20.325 97.5143 21.0667 97.0643 21.7C96.6309 22.3333 96.0059 22.825 95.1893 23.175C94.3893 23.525 93.4393 23.7 92.3393 23.7C90.6059 23.7 89.2726 23.3167 88.3393 22.55C87.4226 21.7667 86.9643 20.7417 86.9643 19.475C86.9643 18.625 87.1893 17.8833 87.6393 17.25C88.0893 16.6167 88.7143 16.125 89.5143 15.775C90.3309 15.425 91.2726 15.25 92.3393 15.25ZM92.3393 17.125C91.5726 17.125 90.9309 17.3417 90.4143 17.775C89.9143 18.1917 89.6643 18.7583 89.6643 19.475C89.6643 20.1917 89.9143 20.7667 90.4143 21.2C90.9309 21.6333 91.5726 21.85 92.3393 21.85C93.1226 21.85 93.7643 21.6333 94.2643 21.2C94.7809 20.7667 95.0393 20.1917 95.0393 19.475C95.0393 18.7583 94.7809 18.1917 94.2643 17.775C93.7643 17.3417 93.1226 17.125 92.3393 17.125ZM114.745 15.25C115.962 15.25 117.037 15.5083 117.97 16.025C118.903 16.5417 119.628 17.2917 120.145 18.275C120.678 19.2417 120.945 20.4 120.945 21.75C120.945 23.1 120.678 24.2667 120.145 25.25C119.628 26.2167 118.903 26.9583 117.97 27.475C117.037 27.9917 115.962 28.25 114.745 28.25C113.528 28.25 112.453 27.9917 111.52 27.475C110.587 26.9583 109.853 26.2167 109.32 25.25C108.787 24.2667 108.52 23.1 108.52 21.75C108.52 20.4 108.787 19.2417 109.32 18.275C109.853 17.2917 110.587 16.5417 111.52 16.025C112.453 15.5083 113.528 15.25 114.745 15.25ZM114.745 17.35C113.995 17.35 113.353 17.525 112.82 17.875C112.303 18.2083 111.903 18.7 111.62 19.35C111.337 20 111.195 20.8 111.195 21.75C111.195 22.6833 111.337 23.4833 111.62 24.15C111.903 24.8 112.303 25.3 112.82 25.65C113.353 25.9833 113.995 26.15 114.745 26.15C115.495 26.15 116.128 25.9833 116.645 25.65C117.162 25.3 117.562 24.8 117.845 24.15C118.128 23.4833 118.27 22.6833 118.27 21.75C118.27 20.8 118.128 20 117.845 19.35C117.562 18.7 117.162 18.2083 116.645 17.875C116.128 17.525 115.495 17.35 114.745 17.35ZM128.76 28.25C127.944 28.25 127.185 28.1 126.485 27.8C125.802 27.5 125.252 27.0167 124.835 26.35C124.419 25.6833 124.21 24.8167 124.21 23.75V15.5H126.885V23.075C126.885 24.2083 127.127 24.9917 127.61 25.425C128.094 25.8417 128.769 26.05 129.635 26.05C130.052 26.05 130.452 25.9833 130.835 25.85C131.235 25.7 131.594 25.475 131.91 25.175C132.227 24.8583 132.469 24.4583 132.635 23.975C132.819 23.4917 132.91 22.925 132.91 22.275V15.5H135.585V28H133.235L133.11 25.975C132.677 26.7583 132.094 27.3333 131.36 27.7C130.627 28.0667 129.76 28.25 128.76 28.25ZM143.414 11.825V24.25C143.414 24.8667 143.573 25.3167 143.889 25.6C144.223 25.8833 144.664 26.025 145.214 26.025C145.664 26.025 146.056 25.9583 146.389 25.825C146.723 25.675 147.031 25.475 147.314 25.225L147.914 27.175C147.531 27.5083 147.056 27.775 146.489 27.975C145.939 28.1583 145.323 28.25 144.639 28.25C143.923 28.25 143.264 28.1333 142.664 27.9C142.064 27.6667 141.598 27.2917 141.264 26.775C140.931 26.2417 140.756 25.55 140.739 24.7V12.575L143.414 11.825ZM147.714 15.5V17.6H138.339V15.5H147.714Z" fill="#443E3E"/>
</svg>
