<svg width="720" height="1024" viewBox="0 0 720 1024" fill="none" xmlns="http://www.w3.org/2000/svg">
<g clip-path="url(#clip0_1280_4522)">
<rect width="720" height="1024" fill="#BECAB5"/>
<path d="M308 357.069C58.8 362.269 -27.1667 422.667 -39 462.5V1039.57H1470.5C1367.33 854.069 1692 659.431 1470.5 462.5C1401.37 401.038 619.5 350.569 308 357.069Z" fill="#BECAB5"/>
<path d="M62.5 1088.5C150.5 770 237 483 -14 464V406.5C149.5 406.5 271.889 452 378.389 612.5C485 420 734 356 820.5 380V420C549 444.089 597 772 720.5 1088.5C844 1405 62.5 1088.5 62.5 1088.5Z" fill="#DBD3C9"/>
<path d="M374.075 369V609.592H392.119V369H374.075Z" fill="#7B6958" stroke="#443E3E" stroke-width="3.0074"/>
<path d="M459.015 487.668L344.511 503.806L351.051 550.47L465.554 534.331L487.614 506.583L459.015 487.668Z" fill="#BAA898" stroke="#443E3E" stroke-width="3.0074"/>
<path d="M278.467 466.414L447.068 484.134L454.535 412.75L285.934 395.029L244.733 426.784L278.467 466.414Z" fill="#FDFCF8" stroke="#443E3E" stroke-width="3.0074"/>
<path d="M291.616 444.195C289.73 444.003 288.041 443.387 286.551 442.348C285.061 441.309 283.911 439.973 283.103 438.338C282.342 436.665 282.063 434.84 282.264 432.866C282.47 430.847 283.11 429.139 284.184 427.741C285.306 426.304 286.699 425.249 288.364 424.576C290.033 423.86 291.811 423.598 293.698 423.79C295.629 423.987 297.318 424.603 298.764 425.637C300.258 426.632 301.388 427.945 302.153 429.575C302.922 431.161 303.204 432.963 302.998 434.981C302.797 436.956 302.154 438.686 301.072 440.172C299.994 441.614 298.62 442.693 296.951 443.409C295.325 444.13 293.547 444.392 291.616 444.195ZM292.16 438.864C293.521 439.002 294.665 438.653 295.592 437.817C296.569 436.941 297.128 435.801 297.272 434.397C297.419 432.949 297.099 431.741 296.311 430.774C295.567 429.812 294.515 429.261 293.154 429.122C291.838 428.988 290.674 429.312 289.663 430.096C288.696 430.884 288.139 432.002 287.991 433.45C287.847 434.854 288.165 436.084 288.945 437.139C289.772 438.154 290.844 438.729 292.16 438.864ZM322.452 447.341C321.618 447.256 320.94 446.943 320.419 446.402C319.942 445.866 319.741 445.225 319.817 444.479L320.637 436.448C320.802 434.825 320.548 433.624 319.874 432.846C319.243 432.072 318.401 431.631 317.348 431.524C316.251 431.412 315.294 431.669 314.476 432.295C313.703 432.926 313.181 433.693 312.911 434.596L312.011 443.416C311.935 444.162 311.585 444.769 310.961 445.238C310.385 445.667 309.702 445.841 308.913 445.76C308.079 445.675 307.401 445.362 306.88 444.821C306.359 444.28 306.136 443.637 306.213 442.891L307.717 428.147C307.788 427.445 308.112 426.879 308.688 426.45C309.312 425.982 310.063 425.793 310.941 425.882C311.643 425.954 312.215 426.212 312.657 426.656C313.104 427.056 313.386 427.551 313.504 428.139C314.845 426.724 316.723 426.14 319.136 426.386C321.593 426.637 323.516 427.564 324.904 429.169C326.292 430.774 326.825 433.156 326.503 436.315L325.596 445.201C325.525 445.903 325.179 446.467 324.559 446.891C323.988 447.276 323.285 447.426 322.452 447.341ZM337.892 448.917C337.059 448.832 336.381 448.519 335.86 447.978C335.343 447.393 335.127 446.684 335.212 445.85L336.965 428.671C337.1 427.354 336.508 426.629 335.192 426.494L331.967 426.165C331.177 426.085 330.543 425.776 330.066 425.24C329.637 424.664 329.463 423.981 329.543 423.191C329.624 422.402 329.93 421.79 330.462 421.356C331.043 420.884 331.728 420.687 332.517 420.768L348.775 422.427C349.609 422.512 350.24 422.842 350.669 423.418C351.147 423.955 351.345 424.618 351.264 425.408C351.184 426.197 350.853 426.829 350.273 427.302C349.741 427.735 349.058 427.909 348.225 427.824L345.065 427.502C343.749 427.367 343.023 427.959 342.889 429.275L341.136 446.454C341.051 447.288 340.697 447.939 340.072 448.407C339.497 448.836 338.77 449.006 337.892 448.917ZM354.357 450.397C353.524 450.312 352.846 449.999 352.325 449.458C351.804 448.917 351.581 448.274 351.657 447.528L353.162 432.784C353.233 432.082 353.557 431.516 354.133 431.087C354.757 430.619 355.508 430.429 356.386 430.519C357.175 430.6 357.787 430.906 358.221 431.438C358.702 431.93 358.954 432.51 358.974 433.177C359.533 432.481 360.256 431.912 361.144 431.47C362.031 431.029 362.935 430.855 363.857 430.949C364.427 431.007 364.969 431.129 365.482 431.314C366.079 431.552 366.548 431.955 366.889 432.522C367.234 433.045 367.374 433.635 367.307 434.294C367.213 435.215 366.827 435.952 366.15 436.503C365.521 437.016 364.821 437.144 364.049 436.887C363.492 436.698 362.928 436.574 362.358 436.515C361.349 436.412 360.479 436.678 359.749 437.313C359.019 437.948 358.479 439.334 358.128 441.471L357.456 448.053C357.38 448.799 357.03 449.406 356.406 449.874C355.83 450.303 355.147 450.478 354.357 450.397ZM376.387 452.844C373.447 452.544 371.15 451.379 369.495 449.348C367.888 447.277 367.244 444.684 367.562 441.569C367.88 438.453 369.008 436.085 370.947 434.465C372.934 432.806 375.376 432.124 378.272 432.42C380.334 432.63 382.059 433.538 383.448 435.142C383.677 434.634 384.051 434.228 384.569 433.927C385.088 433.625 385.676 433.508 386.334 433.575C387.212 433.664 387.887 433.999 388.36 434.579C388.881 435.12 389.106 435.742 389.034 436.444L387.51 451.385C387.434 452.131 387.086 452.717 386.466 453.141C385.89 453.57 385.164 453.74 384.286 453.65C382.838 453.502 382.003 452.774 381.782 451.466C380.248 452.595 378.45 453.055 376.387 452.844ZM377.392 447.56C378.796 447.703 379.962 447.356 380.89 446.52C381.822 445.64 382.36 444.497 382.503 443.093C382.651 441.645 382.353 440.44 381.609 439.477C380.864 438.514 379.79 437.961 378.386 437.818C377.026 437.679 375.862 438.004 374.895 438.792C373.972 439.585 373.436 440.705 373.288 442.153C373.145 443.557 373.441 444.785 374.176 445.835C374.96 446.846 376.032 447.421 377.392 447.56ZM401.341 455.39C399.498 455.202 397.808 454.609 396.269 453.609C394.774 452.614 393.625 451.278 392.821 449.599C392.017 447.921 391.726 445.985 391.95 443.791C392.303 440.768 393.534 438.477 395.644 436.919C397.759 435.317 400.352 434.672 403.423 434.986C404.608 435.107 405.757 435.357 406.871 435.737C407.985 436.116 408.924 436.7 409.686 437.487C410.29 438.081 410.55 438.794 410.465 439.628C410.393 440.33 410.065 440.94 409.48 441.456C408.939 441.978 408.296 442.2 407.55 442.124C407.067 442.075 406.642 441.898 406.274 441.595C405.651 441.177 405.084 440.875 404.57 440.689C404.101 440.508 403.559 440.387 402.945 440.324C401.497 440.176 400.27 440.472 399.263 441.212C398.257 441.952 397.682 443.024 397.538 444.428C397.373 446.051 397.747 447.375 398.663 448.4C399.582 449.38 400.722 449.94 402.083 450.079C403.619 450.236 405.125 449.813 406.602 448.811C407.168 448.47 407.693 448.324 408.176 448.373C408.878 448.445 409.441 448.79 409.866 449.41C410.334 450.034 410.53 450.719 410.454 451.465C410.423 451.772 410.321 452.117 410.149 452.498C409.982 452.836 409.705 453.162 409.318 453.477C408.034 454.322 406.692 454.872 405.292 455.128C403.931 455.433 402.614 455.52 401.341 455.39ZM416.559 456.943C415.725 456.858 415.048 456.545 414.526 456.004C414.005 455.463 413.783 454.82 413.859 454.074L416.357 429.588C416.429 428.886 416.752 428.321 417.328 427.892C417.952 427.423 418.703 427.234 419.581 427.323C420.415 427.409 421.068 427.741 421.541 428.321C422.018 428.858 422.219 429.499 422.143 430.245L420.987 441.566C420.934 442.093 421.06 442.372 421.368 442.403C421.455 442.412 421.64 442.342 421.921 442.194L428.789 438.106C429.352 437.809 429.94 437.691 430.554 437.754C431.3 437.83 431.888 438.156 432.317 438.732C432.746 439.308 432.924 439.947 432.853 440.649C432.754 441.614 432.237 442.337 431.301 442.818L425.752 445.71C425.282 445.973 425.029 446.279 424.993 446.63C424.957 446.982 425.104 447.285 425.432 447.54L430.872 453.548C431.235 453.896 431.463 454.274 431.554 454.682C431.645 455.09 431.673 455.47 431.637 455.821C431.566 456.523 431.218 457.108 430.594 457.577C430.013 458.05 429.35 458.248 428.604 458.172C427.858 458.096 427.229 457.743 426.717 457.115L420.911 450.138C420.793 449.993 420.646 449.911 420.47 449.893C420.251 449.871 420.123 450.035 420.088 450.386L419.658 454.599C419.582 455.345 419.232 455.952 418.607 456.42C418.032 456.849 417.349 457.024 416.559 456.943Z" fill="#443E3E"/>
</g>
<defs>
<clipPath id="clip0_1280_4522">
<rect width="720" height="1024" fill="white"/>
</clipPath>
</defs>
</svg>
