<svg width="62" height="60" viewBox="0 0 62 60" fill="none" xmlns="http://www.w3.org/2000/svg">
<path d="M33.0801 1V59H37.4301V1H33.0801Z" fill="#7B6958" stroke="#443E3E" stroke-width="1.78697"/>
<path d="M53.5569 29.6071L25.9533 33.4976L27.5298 44.7469L55.1334 40.8564L60.4513 34.167L53.5569 29.6071Z" fill="#BAA898" stroke="#443E3E" stroke-width="1.78697"/>
<path d="M10.0329 24.4836L50.678 28.7556L52.4781 11.5469L11.833 7.27489L1.90072 14.9299L10.0329 24.4836Z" fill="#FDFCF8" stroke="#443E3E" stroke-width="1.78697"/>
<path d="M13.2327 19.5524C12.774 19.5056 12.3636 19.3559 12.0013 19.1034C11.6391 18.8509 11.3597 18.526 11.1631 18.1288C10.9783 17.7219 10.9104 17.2785 10.9594 16.7985C11.0094 16.3079 11.165 15.8926 11.426 15.5528C11.6987 15.2034 12.0374 14.947 12.4421 14.7835C12.8479 14.6094 13.2801 14.5457 13.7387 14.5925C14.208 14.6404 14.6185 14.79 14.97 15.0415C15.3334 15.2833 15.608 15.6023 15.7939 15.9985C15.9809 16.384 16.0493 16.8221 15.9993 17.3127C15.9503 17.7927 15.7942 18.2133 15.531 18.5744C15.269 18.9249 14.935 19.1872 14.5293 19.3614C14.1342 19.5366 13.702 19.6003 13.2327 19.5524ZM13.3649 18.2564C13.6955 18.2902 13.9736 18.2054 14.1992 18.0021C14.4364 17.7892 14.5725 17.512 14.6073 17.1707C14.6432 16.8187 14.5654 16.5252 14.3738 16.2901C14.1929 16.0561 13.9371 15.9222 13.6065 15.8885C13.2865 15.8558 13.0036 15.9347 12.7579 16.1252C12.5228 16.3168 12.3873 16.5885 12.3513 16.9405C12.3165 17.2819 12.3938 17.5807 12.5832 17.8372C12.7843 18.084 13.0449 18.2238 13.3649 18.2564ZM20.728 20.3172C20.5253 20.2965 20.3607 20.2204 20.234 20.0889C20.1179 19.9585 20.0692 19.8027 20.0877 19.6213L20.2868 17.6694C20.3271 17.2747 20.2653 16.9828 20.1014 16.7936C19.9481 16.6056 19.7435 16.4985 19.4875 16.4723C19.2208 16.4451 18.9881 16.5076 18.7894 16.6598C18.6013 16.813 18.4745 16.9995 18.409 17.2191L18.1903 19.3631C18.1718 19.5444 18.0866 19.692 17.9349 19.8058C17.7949 19.9101 17.629 19.9525 17.437 19.9329C17.2343 19.9122 17.0696 19.8361 16.9429 19.7046C16.8162 19.5732 16.7621 19.4167 16.7806 19.2354L17.1463 15.6515C17.1637 15.4808 17.2424 15.3434 17.3824 15.2391C17.5341 15.1252 17.7166 15.0792 17.93 15.101C18.1006 15.1184 18.2397 15.1811 18.3473 15.289C18.4559 15.3863 18.5245 15.5065 18.553 15.6495C18.8791 15.3056 19.3354 15.1635 19.9221 15.2234C20.5194 15.2843 20.9868 15.5098 21.3242 15.8999C21.6616 16.29 21.7911 16.869 21.7128 17.637L21.4924 19.797C21.475 19.9677 21.391 20.1046 21.2403 20.2078C21.1014 20.3014 20.9307 20.3378 20.728 20.3172ZM24.4813 20.7001C24.2786 20.6794 24.114 20.6033 23.9873 20.4719C23.8617 20.3297 23.8092 20.1573 23.8299 19.9547L24.256 15.7787C24.2886 15.4587 24.1449 15.2824 23.8249 15.2498L23.041 15.1698C22.849 15.1502 22.6949 15.0752 22.5789 14.9448C22.4747 14.8048 22.4323 14.6389 22.4519 14.4469C22.4715 14.2549 22.5459 14.1062 22.6752 14.0008C22.8163 13.8859 22.9828 13.8382 23.1748 13.8578L27.1267 14.261C27.3294 14.2817 27.4829 14.362 27.5871 14.502C27.7032 14.6324 27.7514 14.7936 27.7318 14.9856C27.7122 15.1776 27.6319 15.331 27.4908 15.446C27.3615 15.5513 27.1955 15.5937 26.9929 15.573L26.2249 15.4946C25.9049 15.462 25.7286 15.6057 25.6959 15.9257L25.2699 20.1016C25.2492 20.3042 25.163 20.4625 25.0113 20.5763C24.8713 20.6806 24.6946 20.7219 24.4813 20.7001ZM28.4836 21.06C28.281 21.0393 28.1163 20.9632 27.9896 20.8317C27.8629 20.7002 27.8088 20.5438 27.8273 20.3625L28.193 16.7786C28.2104 16.6079 28.2891 16.4705 28.429 16.3662C28.5808 16.2523 28.7633 16.2063 28.9766 16.2281C29.1686 16.2476 29.3173 16.3221 29.4227 16.4514C29.5398 16.5711 29.6008 16.7121 29.6058 16.8742C29.7417 16.7049 29.9175 16.5665 30.1332 16.4592C30.3489 16.3519 30.5688 16.3097 30.7928 16.3325C30.9314 16.3467 31.0631 16.3763 31.1878 16.4213C31.3328 16.4792 31.4468 16.5771 31.5297 16.7149C31.6137 16.842 31.6476 16.9856 31.6313 17.1456C31.6084 17.3696 31.5147 17.5486 31.3501 17.6827C31.1973 17.8072 31.0271 17.8383 30.8395 17.7761C30.7041 17.7299 30.567 17.6998 30.4284 17.6856C30.183 17.6606 29.9717 17.7253 29.7943 17.8796C29.6168 18.0339 29.4855 18.3708 29.4002 18.8902L29.2369 20.4902C29.2184 20.6715 29.1333 20.8191 28.9816 20.9329C28.8416 21.0372 28.6756 21.0796 28.4836 21.06ZM33.8386 21.6548C33.124 21.5819 32.5655 21.2986 32.1632 20.8049C31.7727 20.3016 31.6161 19.6713 31.6933 18.914C31.7706 18.1567 32.0449 17.5811 32.5162 17.1874C32.9992 16.784 33.5927 16.6182 34.2967 16.69C34.798 16.7412 35.2174 16.9618 35.5548 17.3519C35.6105 17.2282 35.7014 17.1297 35.8274 17.0564C35.9535 16.983 36.0965 16.9545 36.2565 16.9708C36.4698 16.9926 36.6339 17.074 36.7489 17.2151C36.8756 17.3465 36.9302 17.4976 36.9128 17.6683L36.5422 21.3002C36.5237 21.4815 36.4392 21.6238 36.2885 21.727C36.1486 21.8312 35.9719 21.8725 35.7586 21.8507C35.4066 21.8148 35.2037 21.6378 35.1499 21.3198C34.7771 21.5943 34.3399 21.706 33.8386 21.6548ZM34.0828 20.3703C34.4242 20.4051 34.7076 20.3209 34.9331 20.1176C35.1597 19.9036 35.2904 19.6259 35.3253 19.2846C35.3612 18.9326 35.2887 18.6396 35.1078 18.4056C34.9269 18.1716 34.6658 18.0372 34.3245 18.0023C33.9938 17.9686 33.7109 18.0475 33.4758 18.2391C33.2514 18.4317 33.1212 18.704 33.0853 19.056C33.0505 19.3974 33.1224 19.6957 33.3011 19.951C33.4916 20.1968 33.7522 20.3366 34.0828 20.3703ZM39.9044 22.2737C39.4564 22.228 39.0454 22.0837 38.6714 21.8408C38.3081 21.5989 38.0287 21.274 37.8332 20.8661C37.6377 20.4582 37.5672 19.9875 37.6216 19.4542C37.7074 18.7193 38.0067 18.1625 38.5195 17.7837C39.0335 17.3943 39.6638 17.2376 40.4104 17.3138C40.6984 17.3432 40.9778 17.4041 41.2486 17.4963C41.5194 17.5886 41.7474 17.7305 41.9327 17.9218C42.0796 18.0661 42.1428 18.2396 42.1221 18.4423C42.1047 18.6129 42.0249 18.7611 41.8827 18.8867C41.7513 19.0134 41.5949 19.0675 41.4135 19.049C41.2962 19.037 41.1928 18.9941 41.1033 18.9203C40.952 18.8187 40.814 18.7453 40.6893 18.7002C40.5752 18.6563 40.4435 18.6267 40.2942 18.6114C39.9422 18.5755 39.6439 18.6475 39.3992 18.8273C39.1545 19.0071 39.0148 19.2677 38.98 19.609C38.9397 20.0036 39.0308 20.3255 39.2533 20.5745C39.4768 20.8129 39.7539 20.9489 40.0846 20.9827C40.4579 21.0207 40.8241 20.918 41.183 20.6744C41.3208 20.5915 41.4484 20.556 41.5657 20.568C41.7364 20.5854 41.8733 20.6694 41.9765 20.82C42.0903 20.9717 42.138 21.1383 42.1195 21.3196C42.1119 21.3943 42.0872 21.478 42.0454 21.5707C42.0047 21.6528 41.9373 21.7321 41.8433 21.8087C41.5313 22.014 41.2051 22.1478 40.8647 22.21C40.5338 22.2841 40.2137 22.3053 39.9044 22.2737ZM43.6034 22.6511C43.4008 22.6305 43.2361 22.5544 43.1094 22.4229C42.9827 22.2914 42.9286 22.135 42.9471 21.9537L43.5544 16.0018C43.5718 15.8312 43.6505 15.6937 43.7905 15.5894C43.9422 15.4756 44.1247 15.4295 44.338 15.4513C44.5407 15.472 44.6995 15.5528 44.8144 15.6939C44.9305 15.8243 44.9792 15.9801 44.9607 16.1615L44.6799 18.9134C44.6669 19.0414 44.6977 19.1092 44.7723 19.1168C44.7937 19.119 44.8385 19.102 44.9069 19.0659L46.5764 18.0723C46.7131 18 46.8561 17.9715 47.0054 17.9867C47.1868 18.0052 47.3296 18.0845 47.4338 18.2244C47.5381 18.3644 47.5815 18.5197 47.5641 18.6904C47.5402 18.925 47.4145 19.1008 47.187 19.2177L45.8381 19.9207C45.7238 19.9845 45.6624 20.0591 45.6536 20.1444C45.6449 20.2297 45.6805 20.3034 45.7604 20.3655L47.0825 21.826C47.1709 21.9104 47.2262 22.0023 47.2484 22.1016C47.2706 22.2008 47.2774 22.2931 47.2687 22.3785C47.2512 22.5491 47.1667 22.6914 47.015 22.8052C46.8739 22.9202 46.7127 22.9684 46.5314 22.9499C46.35 22.9314 46.1971 22.8457 46.0726 22.6929L44.6613 20.997C44.6326 20.9617 44.5969 20.9419 44.5542 20.9375C44.5009 20.9321 44.4699 20.972 44.4612 21.0574L44.3567 22.0814C44.3382 22.2627 44.2531 22.4103 44.1014 22.5241C43.9614 22.6284 43.7954 22.6707 43.6034 22.6511Z" fill="#443E3E"/>
</svg>
