<svg width="158" height="170" viewBox="0 0 158 170" fill="none" xmlns="http://www.w3.org/2000/svg">
<path d="M81.2876 2V168H92.9777V2H81.2876Z" fill="#DBD3C9" stroke="black" stroke-width="2.33803"/>
<path d="M136.592 78.4263L61.1819 89.0245L65.4888 119.669L140.899 109.071L155.427 90.8483L136.592 78.4263Z" fill="#DBD3C9" stroke="black" stroke-width="2.33803"/>
<path d="M23.0234 62.4311L126.629 71.4954L130.303 29.5022L26.6973 20.4379L1.83686 39.4202L23.0234 62.4311Z" fill="#FDFCF8" stroke="black" stroke-width="2.33803"/>
<path d="M24.1354 50.1157C22.7939 49.9983 21.6724 49.6185 20.771 48.9764C19.8899 48.3173 19.2394 47.4906 18.8194 46.4963C18.4197 45.485 18.2696 44.411 18.369 43.2744C18.5092 41.6719 18.9406 40.2827 19.663 39.1067C20.3855 37.9308 21.3173 37.0453 22.4583 36.4505C23.601 35.837 24.8804 35.5921 26.2965 35.716C27.6567 35.835 28.7774 36.2241 29.6585 36.8832C30.5412 37.5237 31.1833 38.3403 31.5846 39.333C31.9875 40.307 32.1385 41.3717 32.0374 42.5269C31.8988 44.1107 31.4675 45.5 30.7434 46.6946C30.0395 47.8722 29.1163 48.7678 27.9736 49.3813C26.8309 49.9948 25.5516 50.2396 24.1354 50.1157ZM24.388 48.1945C25.301 48.2744 26.1429 48.0945 26.9136 47.655C27.6859 47.1969 28.3271 46.5207 28.8372 45.6266C29.3473 44.7324 29.6569 43.6611 29.7661 42.4127C29.8379 41.5929 29.7532 40.8438 29.5121 40.1656C29.2913 39.4703 28.8906 38.9002 28.3099 38.4551C27.7495 37.993 26.9942 37.7204 26.0439 37.6372C25.1495 37.559 24.3068 37.7481 23.5159 38.2046C22.7452 38.6441 22.0955 39.3102 21.5668 40.2027C21.0583 41.0782 20.7495 42.1402 20.6403 43.3886C20.5702 44.1898 20.654 44.9482 20.8918 45.6637C21.1313 46.3606 21.5405 46.9409 22.1196 47.4046C22.7002 47.8497 23.4564 48.113 24.388 48.1945ZM33.7645 50.7046L38.2292 37.0135L40.1857 37.1847L39.6718 39.1956C40.2247 38.4554 40.9461 37.9365 41.8358 37.6388C42.7271 37.3225 43.6573 37.2068 44.6262 37.2915C45.7069 37.3861 46.5996 37.6989 47.3041 38.2299C48.0087 38.7609 48.4717 39.4774 48.6932 40.3792C48.935 41.264 48.8624 42.3091 48.4753 43.5144L45.7828 51.7561L43.5468 51.5605L46.2418 43.2909C46.6272 42.1042 46.5884 41.1526 46.1254 40.4362C45.6826 39.7027 44.9115 39.2879 43.8122 39.1918C42.5079 39.0776 41.399 39.4125 40.4855 40.1962C39.5737 40.9614 38.8613 42.1288 38.3485 43.6987L36.0004 50.9003L33.7645 50.7046ZM66.4122 34.973L65.7257 37.0252L59.493 36.4799L54.2893 52.5003L52.0533 52.3047L57.257 36.2843L50.9124 35.7292L51.5989 33.677L66.4122 34.973ZM61.9324 53.169L66.3972 39.4779L68.2139 39.6368L67.7971 41.8253C68.3873 41.0883 69.1111 40.5414 69.9684 40.1846C70.8461 39.8108 71.7134 39.6613 72.5705 39.7363C73.1668 39.7885 73.6346 39.9139 73.974 40.1126L73.1173 42.1781C72.9391 42.0686 72.7306 41.9846 72.4916 41.9262C72.2729 41.8507 72.0052 41.7991 71.6884 41.7714C70.6263 41.6785 69.6341 41.9672 68.7118 42.6375C67.8097 43.2909 67.1031 44.3931 66.5919 45.9443L64.1684 53.3646L61.9324 53.169ZM78.4609 54.8404C77.3802 54.7458 76.4528 54.4018 75.6786 53.8084C74.9043 53.2149 74.3243 52.4413 73.9383 51.4875C73.554 50.5151 73.4148 49.4233 73.5208 48.2122C73.6561 46.6657 74.0858 45.2951 74.8099 44.1005C75.5357 42.8872 76.4622 41.9544 77.5895 41.302C78.7354 40.6512 79.9978 40.3861 81.3766 40.5068C82.6064 40.6144 83.6128 41.0216 84.3959 41.7285C85.1806 42.4167 85.6484 43.2932 85.7993 44.3578L86.8023 41.2631L89.0383 41.4587L84.5735 55.1498L82.617 54.9787L83.3196 52.4209C82.7974 53.2389 82.0943 53.8721 81.2101 54.3205C80.3463 54.7518 79.4299 54.9251 78.4609 54.8404ZM79.2142 52.9912C80.0899 53.0678 80.9257 52.8499 81.7216 52.3375C82.5174 51.825 83.1822 51.0946 83.7158 50.1462C84.2493 49.1978 84.5691 48.118 84.6751 46.9068C84.7859 45.6398 84.5386 44.6043 83.933 43.8002C83.3274 42.9962 82.4656 42.5453 81.3476 42.4475C80.3601 42.3611 79.4591 42.5733 78.6446 43.0841C77.8317 43.5762 77.1686 44.288 76.6553 45.2195C76.1436 46.1323 75.8356 47.1849 75.7312 48.3774C75.6122 49.7376 75.8462 50.8189 76.4332 51.6213C77.0388 52.4253 77.9657 52.8819 79.2142 52.9912ZM96.408 56.4387C95.1223 56.3262 94.0381 55.9497 93.1554 55.3092C92.2929 54.6517 91.661 53.8266 91.2597 52.834C90.86 51.8227 90.7107 50.7394 90.8117 49.5841C90.9519 47.9817 91.3825 46.6018 92.1033 45.4444C92.8258 44.2685 93.7669 43.3838 94.9265 42.7906C96.0878 42.1787 97.3952 41.9364 98.8486 42.0635C100.432 42.2021 101.682 42.7245 102.598 43.6308C103.514 44.537 104.039 45.6156 104.174 46.8666L101.777 47.2202C101.774 46.3938 101.508 45.6759 100.98 45.0663C100.471 44.4398 99.6674 44.0784 98.568 43.9823C97.6177 43.8991 96.7471 44.0858 95.9562 44.5423C95.1652 44.9989 94.5147 45.6742 94.0046 46.5683C93.4962 47.4439 93.1873 48.5058 93.0781 49.7543C92.9705 50.984 93.2239 52.0576 93.8384 52.9751C94.4714 53.8942 95.4588 54.4124 96.8003 54.5297C97.527 54.5933 98.2234 54.4665 98.8896 54.1493C99.5743 53.8337 100.079 53.3239 100.403 52.6201L102.515 53.5934C101.936 54.6317 101.099 55.394 100.005 55.8804C98.9301 56.3683 97.731 56.5544 96.408 56.4387ZM120.825 44.2397L113.72 49.1662L116.696 57.9602L114.264 57.7475L111.867 50.3842L108.18 52.9343L106.83 57.097L104.594 56.9014L111.102 36.9114L113.338 37.1071L109.178 49.8954L117.695 43.9658L120.825 44.2397Z" fill="black"/>
</svg>
