<svg width="48" height="48" viewBox="0 0 48 48" fill="none" xmlns="http://www.w3.org/2000/svg">
<circle cx="24" cy="24" r="24" fill="white"/>
<path d="M24 48C37.2549 48 48 37.2549 48 24C48 10.7451 37.2549 0 24 0C10.7451 0 0 10.7451 0 24C0 37.2549 10.7451 48 24 48ZM22.2857 15.4286C22.2857 14.9739 22.4663 14.5379 22.7878 14.2164C23.1093 13.8949 23.5453 13.7143 24 13.7143C24.4547 13.7143 24.8907 13.8949 25.2122 14.2164C25.5337 14.5379 25.7143 14.9739 25.7143 15.4286V22.2857H32.5714C33.0261 22.2857 33.4621 22.4663 33.7836 22.7878C34.1051 23.1093 34.2857 23.5453 34.2857 24C34.2857 24.4547 34.1051 24.8907 33.7836 25.2122C33.4621 25.5337 33.0261 25.7143 32.5714 25.7143H25.7143V32.5714C25.7143 33.0261 25.5337 33.4621 25.2122 33.7836C24.8907 34.1051 24.4547 34.2857 24 34.2857C23.5453 34.2857 23.1093 34.1051 22.7878 33.7836C22.4663 33.4621 22.2857 33.0261 22.2857 32.5714V25.7143H15.4286C14.9739 25.7143 14.5379 25.5337 14.2164 25.2122C13.8949 24.8907 13.7143 24.4547 13.7143 24C13.7143 23.5453 13.8949 23.1093 14.2164 22.7878C14.5379 22.4663 14.9739 22.2857 15.4286 22.2857H22.2857V15.4286Z" fill="#78929B"/>
</svg>
