<svg width="39" height="39" viewBox="0 0 39 39" fill="none" xmlns="http://www.w3.org/2000/svg">
<path d="M38.1664 35.5298L25.7394 23.1027C27.6678 20.6097 28.7109 17.5615 28.7109 14.3555C28.7109 10.5178 27.2132 6.91934 24.5048 4.20615C21.7964 1.49297 18.1884 0 14.3555 0C10.5226 0 6.91455 1.49775 4.20615 4.20615C1.49297 6.91455 0 10.5178 0 14.3555C0 18.1884 1.49775 21.7964 4.20615 24.5048C6.91455 27.218 10.5178 28.7109 14.3555 28.7109C17.5615 28.7109 20.6049 27.6678 23.0979 25.7441L35.525 38.1664C35.5614 38.2029 35.6047 38.2318 35.6523 38.2515C35.6999 38.2713 35.751 38.2814 35.8025 38.2814C35.8541 38.2814 35.9051 38.2713 35.9528 38.2515C36.0004 38.2318 36.0436 38.2029 36.0801 38.1664L38.1664 36.0849C38.2029 36.0484 38.2318 36.0052 38.2515 35.9575C38.2713 35.9099 38.2814 35.8589 38.2814 35.8073C38.2814 35.7558 38.2713 35.7047 38.2515 35.6571C38.2318 35.6095 38.2029 35.5662 38.1664 35.5298ZM21.9352 21.9352C19.9063 23.9593 17.217 25.0742 14.3555 25.0742C11.4939 25.0742 8.80469 23.9593 6.77578 21.9352C4.75166 19.9063 3.63672 17.217 3.63672 14.3555C3.63672 11.4939 4.75166 8.7999 6.77578 6.77578C8.80469 4.75166 11.4939 3.63672 14.3555 3.63672C17.217 3.63672 19.911 4.74688 21.9352 6.77578C23.9593 8.80469 25.0742 11.4939 25.0742 14.3555C25.0742 17.217 23.9593 19.911 21.9352 21.9352Z" fill="#333333"/>
</svg>
