<svg width="30" height="30" viewBox="0 0 30 30" fill="none" xmlns="http://www.w3.org/2000/svg">
<path fill-rule="evenodd" clip-rule="evenodd" d="M15 1.25C7.40625 1.25 1.25 7.40625 1.25 15C1.25 22.5938 7.40625 28.75 15 28.75C22.5938 28.75 28.75 22.5938 28.75 15C28.75 7.40625 22.5938 1.25 15 1.25ZM20.96 12.675C21.0697 12.5496 21.1533 12.4034 21.2057 12.2452C21.2582 12.087 21.2784 11.9199 21.2653 11.7537C21.2522 11.5876 21.206 11.4257 21.1295 11.2777C21.0529 11.1296 20.9475 10.9984 20.8194 10.8917C20.6914 10.785 20.5433 10.705 20.3839 10.6563C20.2244 10.6077 20.0569 10.5915 19.8911 10.6085C19.7253 10.6256 19.5646 10.6757 19.4184 10.7558C19.2723 10.8359 19.1436 10.9444 19.04 11.075L13.665 17.5238L10.8838 14.7413C10.648 14.5136 10.3322 14.3876 10.0045 14.3904C9.67675 14.3933 9.36324 14.5247 9.13148 14.7565C8.89972 14.9882 8.76826 15.3018 8.76541 15.6295C8.76256 15.9572 8.88855 16.273 9.11625 16.5088L12.8663 20.2588C12.9891 20.3815 13.1361 20.4773 13.298 20.5401C13.4599 20.6028 13.6331 20.6312 13.8066 20.6233C13.9801 20.6154 14.15 20.5715 14.3055 20.4943C14.4611 20.4171 14.5988 20.3084 14.71 20.175L20.96 12.675Z" fill="#444444"/>
</svg>
