<svg width="31" height="28" viewBox="0 0 31 28" fill="none" xmlns="http://www.w3.org/2000/svg">
<path d="M13.9087 0.887241C14.6344 0.48544 15.4853 0.373376 16.2902 0.573597C17.0952 0.773818 17.7944 1.27147 18.2473 1.96641L18.3683 2.16766L29.6835 22.5975C29.9507 23.0803 30.0917 23.6226 30.0937 24.1744C30.0957 24.7262 29.9584 25.2696 29.6947 25.7543C29.431 26.2389 29.0493 26.6493 28.585 26.9474C28.1206 27.2454 27.5886 27.4216 27.0381 27.4595L26.8135 27.4683H4.18603C3.63471 27.4685 3.09222 27.3299 2.60866 27.0651C2.12509 26.8003 1.71603 26.4179 1.41927 25.9533C1.1225 25.4887 0.947587 24.9568 0.910681 24.4067C0.873776 23.8566 0.976067 23.3061 1.20811 22.806L1.31311 22.5975L12.6269 2.16766C12.9255 1.629 13.3697 1.18528 13.9087 0.887241V0.887241ZM15.4998 20.1664C15.3047 20.1602 15.1103 20.1933 14.9283 20.2637C14.7462 20.3341 14.5801 20.4404 14.4399 20.5762C14.2998 20.712 14.1883 20.8747 14.1122 21.0544C14.036 21.2341 13.9968 21.4274 13.9968 21.6226C13.9968 21.8178 14.036 22.011 14.1122 22.1907C14.1883 22.3704 14.2998 22.5331 14.4399 22.6689C14.5801 22.8047 14.7462 22.911 14.9283 22.9814C15.1103 23.0518 15.3047 23.0849 15.4998 23.0787C15.878 23.0667 16.2367 22.9081 16.5 22.6363C16.7633 22.3645 16.9106 22.001 16.9106 21.6226C16.9106 21.2441 16.7633 20.8806 16.5 20.6088C16.2367 20.337 15.878 20.1784 15.4998 20.1664V20.1664ZM15.4969 8.49391C15.1394 8.494 14.7945 8.62534 14.5275 8.863C14.2606 9.10065 14.0902 9.42807 14.0487 9.78308L14.0414 9.95224V17.2468L14.0516 17.4174C14.0924 17.7732 14.2626 18.1014 14.5298 18.3398C14.797 18.5781 15.1425 18.7098 15.5005 18.7098C15.8585 18.7098 16.2041 18.5781 16.4712 18.3398C16.7384 18.1014 16.9086 17.7732 16.9494 17.4174L16.9581 17.2468V9.95224L16.9479 9.78162C16.9061 9.42663 16.7353 9.09936 16.4681 8.86197C16.2009 8.62458 15.8558 8.4936 15.4983 8.49391H15.4969Z" fill="#444444"/>
</svg>
