<svg width="35" height="35" viewBox="0 0 35 35" fill="none" xmlns="http://www.w3.org/2000/svg">
<path d="M15.9087 4.0571C16.6344 3.6553 17.4853 3.54324 18.2902 3.74346C19.0952 3.94368 19.7944 4.44133 20.2473 5.13627L20.3683 5.33752L31.6835 25.7673C31.9507 26.2501 32.0917 26.7925 32.0937 27.3443C32.0957 27.8961 31.9584 28.4394 31.6947 28.9241C31.431 29.4088 31.0493 29.8192 30.585 30.1172C30.1206 30.4153 29.5886 30.5915 29.0381 30.6294L28.8135 30.6381H6.18603C5.63471 30.6384 5.09222 30.4997 4.60866 30.2349C4.12509 29.9701 3.71603 29.5878 3.41927 29.1232C3.1225 28.6585 2.94759 28.1266 2.91068 27.5765C2.87378 27.0265 2.97607 26.476 3.20811 25.9759L3.31311 25.7673L14.6269 5.33752C14.9255 4.79887 15.3697 4.35514 15.9087 4.0571ZM17.4998 23.3363C17.3047 23.3301 17.1103 23.3632 16.9283 23.4336C16.7462 23.504 16.5801 23.6103 16.4399 23.7461C16.2998 23.8819 16.1883 24.0445 16.1122 24.2243C16.036 24.404 15.9968 24.5972 15.9968 24.7924C15.9968 24.9876 16.036 25.1808 16.1122 25.3606C16.1883 25.5403 16.2998 25.7029 16.4399 25.8387C16.5801 25.9746 16.7462 26.0808 16.9283 26.1512C17.1103 26.2216 17.3047 26.2547 17.4998 26.2486C17.878 26.2366 18.2367 26.0779 18.5 25.8062C18.7633 25.5344 18.9106 25.1708 18.9106 24.7924C18.9106 24.414 18.7633 24.0504 18.5 23.7787C18.2367 23.5069 17.878 23.3482 17.4998 23.3363ZM17.4969 11.6638C17.1394 11.6639 16.7945 11.7952 16.5275 12.0329C16.2606 12.2705 16.0902 12.5979 16.0487 12.9529L16.0414 13.1221V20.4167L16.0517 20.5873C16.0924 20.943 16.2626 21.2713 16.5298 21.5096C16.797 21.7479 17.1425 21.8796 17.5005 21.8796C17.8585 21.8796 18.2041 21.7479 18.4712 21.5096C18.7384 21.2713 18.9086 20.943 18.9494 20.5873L18.9581 20.4167V13.1221L18.9479 12.9515C18.9061 12.5965 18.7353 12.2692 18.4681 12.0318C18.2009 11.7944 17.8558 11.6635 17.4983 11.6638H17.4969Z" fill="#7B6958"/>
</svg>
